# xmcd
#
# Track frame offsets: 
#        150
#        17445
#        27781
#        40747
#        53305
#        69774
#        81434
#        94203
#        106344
#        121914
#        133224
#        148374
#
# Disc length: 2160 seconds
#
# Revision: 1
# Processed by: cddbd v1.5.1PL2 Copyright (c) Steve Scherf et al.
# Submitted via: ExactAudioCopy v0.95a5
#
DISCID=98086e0c
DTITLE=Commander Cody and his Lost Planet Airmen - Tales From The Ozon
DTITLE=e
DYEAR=1976
DGENRE=Classic Rock
TTITLE0=Minnie The Moocher
TTITLE1=It's Gonna Be One Of Those Nights
TTITLE2=Connie
TTITLE3=I Been To Georgia On A Fast Train
TTITLE4=Honky Tonk Music
TTITLE5=Lightnin' Bar Blues
TTITLE6=Paid In Advance
TTITLE7=Cajun Baby
TTITLE8=Tina Louise
TTITLE9=The Shadow Knows
TTITLE10=Roll Your Own
TTITLE11=Gypsy Fiddle
EXTD=
EXTT0=Minnie The Moocher
EXTT1=
EXTT2=
EXTT3=
EXTT4=
EXTT5=
EXTT6=
EXTT7=
EXTT8=
EXTT9=
EXTT10=
EXTT11=
PLAYORDER=
